HIERARCHY
ROOT Hips
{
 OFFSET 0.000000 0.000000 0.000000
 CHANNELS 6 Xposition Yposition Zposition Yrotation Xrotation Zrotation
 JOINT Chest
 {
  OFFSET 0.000000 9.585900 0.002600
  CHANNELS 3 Yrotation Xrotation Zrotation
  JOINT Chest2
  {
   OFFSET 0.000000 9.601200 -0.005300
   CHANNELS 3 Yrotation Xrotation Zrotation
   JOINT Chest3
   {
    OFFSET 0.000000 9.561800 0.000000
    CHANNELS 3 Yrotation Xrotation Zrotation
    JOINT Chest4
    {
     OFFSET 0.000000 9.552100 0.000000
     CHANNELS 3 Yrotation Xrotation Zrotation
     JOINT Neck
     {
      OFFSET 0.000000 14.453000 0.000000
      CHANNELS 3 Yrotation Xrotation Zrotation
      JOINT Head
      {
       OFFSET 0.000000 8.936500 -0.011300
       CHANNELS 3 Yrotation Xrotation Zrotation
       End Site
       {
        OFFSET 0.000000 17.073600 -0.006000
       }
      }
     }
     JOINT RightCollar
     {
      OFFSET -2.921100 9.558500 0.000000
      CHANNELS 3 Yrotation Xrotation Zrotation
      JOINT RightShoulder
      {
       OFFSET -13.519700 0.000000 0.000000
       CHANNELS 3 Yrotation Xrotation Zrotation
       JOINT RightElbow
       {
        OFFSET 0.000000 -29.696600 0.000000
        CHANNELS 3 Yrotation Xrotation Zrotation
        JOINT RightWrist
        {
         OFFSET 0.000000 -24.004700 0.000000
         CHANNELS 3 Yrotation Xrotation Zrotation
         End Site
         {
          OFFSET 0.000000 -17.728500 0.000000
         }
        }
       }
      }
     }
     JOINT LeftCollar
     {
      OFFSET 2.921100 9.558500 0.000000
      CHANNELS 3 Yrotation Xrotation Zrotation
      JOINT LeftShoulder
      {
       OFFSET 13.519700 0.000000 0.000000
       CHANNELS 3 Yrotation Xrotation Zrotation
       JOINT LeftElbow
       {
        OFFSET 0.000000 -29.696600 0.000000
        CHANNELS 3 Yrotation Xrotation Zrotation
        JOINT LeftWrist
        {
         OFFSET 0.000000 -24.004700 0.000000
         CHANNELS 3 Yrotation Xrotation Zrotation
         End Site
         {
          OFFSET 0.000000 -17.728500 0.000000
         }
        }
       }
      }
     }
    }
   }
  }
 }
 JOINT RightHip
 {
  OFFSET -7.771700 -0.012900 -0.001300
  CHANNELS 3 Yrotation Xrotation Zrotation
  JOINT RightKnee
  {
   OFFSET 0.000000 -40.869800 0.001200
   CHANNELS 3 Yrotation Xrotation Zrotation
   JOINT RightAnkle
   {
    OFFSET 0.000000 -39.717900 0.002100
    CHANNELS 3 Yrotation Xrotation Zrotation
    JOINT RightToe
    {
     OFFSET 0.000000 -4.965400 11.033500
     CHANNELS 3 Yrotation Xrotation Zrotation
     End Site
     {
      OFFSET 0.000000 -1.423100 5.872300
     }
    }
   }
  }
 }
 JOINT LeftHip
 {
  OFFSET 7.771700 -0.012900 -0.001300
  CHANNELS 3 Yrotation Xrotation Zrotation
  JOINT LeftKnee
  {
   OFFSET 0.000000 -40.869800 0.001200
   CHANNELS 3 Yrotation Xrotation Zrotation
   JOINT LeftAnkle
   {
    OFFSET 0.000000 -39.717900 0.002100
    CHANNELS 3 Yrotation Xrotation Zrotation
    JOINT LeftToe
    {
     OFFSET 0.000000 -4.965400 11.033500
     CHANNELS 3 Yrotation Xrotation Zrotation
     End Site
     {
      OFFSET 0.000000 -1.423100 5.872300
     }
    }
   }
  }
 }
}
MOTION
Frames: 12
Frame Time: 0.008333
0.000000 85.388000 0.000000 0.000000 -5.767877 0.000000 0.000000 11.653817 0.000000 0.000000 -5.885947 0.000000 0.000000 -0.000000 0.000000 0.000000 -0.000000 0.000000 0.000000 12.528835 0.000000 0.000000 0.711642 0.000000 0.000000 -0.000000 0.000000 0.000000 0.000000 -90.000000 0.000000 -2.309062 0.000000 0.000000 2.309062 0.000000 0.000000 -0.000000 0.000000 0.000000 -0.000000 90.000000 0.000000 -2.309062 0.000000 0.000000 2.309062 0.000000 0.000000 8.520406 0.000000 0.000000 1.905762 0.000000 -0.000000 -4.658285 0.000000 0.000000 -0.000000 0.000000 0.000000 8.520406 0.000000 0.000000 1.905762 0.000000 -0.000000 -4.658285 0.000000 0.000000 -0.000000 0.000000
-1.714282 50.128748 34.442824 172.696200 -32.711061 -6.912789 6.030082 21.366872 7.316877 0.658315 3.113618 0.709898 1.085107 5.037776 1.167303 4.569445 18.216558 4.825661 -3.682593 17.423000 0.570387 -6.985741 -3.324146 2.287443 2.707344 -0.931538 -5.124512 4.913121 -13.395054 -10.451604 -125.286703 -50.414384 133.776758 -3.900605 -4.081013 52.245863 -11.093186 -0.781624 -1.401295 8.260995 -14.410198 0.983250 101.923966 -43.219293 -142.382018 30.699730 4.722014 -40.304152 0.857107 -48.786634 10.295238 -74.293961 80.514227 -62.780182 -1.219423 -6.626344 -4.200481 -0.205843 1.128590 -0.061903 -14.586320 -51.898638 19.945079 -165.400777 88.268897 -172.098243 -0.409218 -7.209343 3.379612 -0.064105 -0.168696 0.031411
-1.712950 50.125869 34.435004 172.688352 -32.688508 -6.914443 6.071396 21.437345 7.378041 0.662969 3.136668 0.717500 1.085204 5.041703 1.166057 4.582428 18.257792 4.849493 -3.616733 17.515620 0.601311 -6.870614 -3.153873 2.317147 2.741991 -0.910674 -5.092343 5.018926 -13.667217 -10.297837 -124.879239 -50.078389 133.343884 -4.667370 -4.247808 50.858217 -11.159441 -0.753095 -1.392805 8.146536 -14.569400 0.838372 102.169721 -43.269621 -142.280614 31.661692 3.827812 -38.590539 0.848437 -48.823382 10.305793 -74.393120 80.527961 -62.879043 -1.204052 -6.592587 -4.234980 -0.235110 1.112755 -0.047780 -14.566315 -51.931726 19.933698 -165.655361 88.249411 -172.328286 -0.404590 -7.223732 3.373046 -0.067566 -0.168325 0.023109
-1.714587 50.123427 34.424883 172.673797 -32.667677 -6.896410 6.112886 21.510835 7.422939 0.661799 3.136067 0.714576 1.091710 5.070057 1.175803 4.596863 18.298765 4.873711 -3.549749 17.604472 0.633620 -6.754064 -2.990587 2.349394 2.769928 -0.888917 -5.062045 5.131343 -13.941254 -10.135398 -124.544739 -49.808664 132.941679 -5.406504 -4.443370 49.454278 -11.224716 -0.725157 -1.378181 8.035490 -14.728613 0.687831 102.503034 -43.391331 -142.200070 32.599731 2.928593 -36.790053 0.852863 -48.858388 10.298476 -74.502189 80.540968 -62.990466 -1.224686 -6.561658 -4.247560 -0.240515 1.083971 -0.047465 -14.518547 -51.964266 19.891721 -165.866006 88.234990 -172.518045 -0.395626 -7.240071 3.373011 -0.067359 -0.167461 0.004509
-1.719530 50.123992 34.409457 172.673630 -32.670840 -6.865194 6.115980 21.556180 7.413721 0.663896 3.145280 0.717697 1.111325 5.148490 1.208355 4.612300 18.337410 4.899071 -3.481301 17.689926 0.666226 -6.635146 -2.833552 2.382043 2.791575 -0.864098 -5.033829 5.250354 -14.217396 -9.971908 -124.281321 -49.598742 132.563680 -6.090467 -4.682116 48.031158 -11.290651 -0.698076 -1.363467 7.915397 -14.883447 0.539985 102.923987 -43.580240 -142.141933 33.514857 2.027309 -34.889946 0.860951 -48.863537 10.264691 -74.743161 80.536977 -63.228746 -1.251125 -6.554690 -4.262268 -0.240064 1.061025 -0.050878 -14.458380 -51.966852 19.812981 -165.735808 88.219539 -172.380536 -0.377419 -7.260939 3.377632 -0.065906 -0.166647 -0.002895
-1.719234 50.122747 34.400606 172.656734 -32.633020 -6.862550 6.142545 21.557259 7.440833 0.666094 3.154230 0.720913 1.130644 5.224138 1.241317 4.627431 18.375463 4.924962 -3.411382 17.773139 0.698569 -6.513584 -2.680726 2.413959 2.809572 -0.833290 -5.003889 5.374063 -14.496233 -9.813577 -124.083699 -49.438163 132.206025 -6.704324 -4.953069 46.577108 -11.362618 -0.667163 -1.349793 7.776317 -15.035131 0.406466 103.424810 -43.819274 -142.099918 34.392680 1.114755 -32.886164 0.827507 -48.911127 10.283937 -74.812217 80.554926 -63.318002 -1.187883 -6.508253 -4.273889 -0.263364 1.037050 -0.059471 -14.452704 -52.008373 19.817344 -165.537140 88.201271 -172.169072 -0.359421 -7.279582 3.376495 -0.065682 -0.165364 -0.007160
-1.723125 50.123087 34.389997 172.649906 -32.600415 -6.838090 6.186150 21.659316 7.499562 0.652986 3.121363 0.697224 1.124451 5.182696 1.224631 4.668487 18.474773 4.985319 -3.340771 17.856179 0.728990 -6.390118 -2.528498 2.442142 2.824418 -0.794065 -4.972622 5.506477 -14.783827 -9.659100 -123.944658 -49.334242 131.860808 -7.253297 -5.237768 45.085576 -11.442935 -0.631734 -1.337255 7.626202 -15.189987 0.290427 103.975413 -44.100483 -142.061247 35.219796 0.172876 -30.799693 0.812772 -48.949261 10.270185 -74.969415 80.555356 -63.489771 -1.166998 -6.491795 -4.281147 -0.222591 1.029535 -0.070523 -14.393803 -52.050558 19.746261 -165.524495 88.190790 -172.126019 -0.340283 -7.296430 3.375875 -0.062779 -0.162731 -0.012584
-1.723729 50.129114 34.373643 172.660524 -32.613456 -6.835214 6.211702 21.751219 7.552551 0.657058 3.131437 0.696016 1.135357 5.240590 1.249463 4.668889 18.494009 4.996376 -3.271782 17.938277 0.754151 -6.268027 -2.378243 2.461300 2.835753 -0.749987 -4.945106 5.650292 -15.080448 -9.504088 -123.859331 -49.295615 131.523401 -7.752272 -5.528277 43.557953 -11.527994 -0.596247 -1.325041 7.473248 -15.350540 0.189635 104.548405 -44.419117 -142.014140 35.986250 -0.813174 -28.654847 0.754209 -48.925178 10.304526 -75.055275 80.553965 -63.607620 -1.176912 -6.492371 -4.296145 -0.242897 1.030697 -0.068231 -14.345633 -52.038377 19.677353 -165.381314 88.180229 -171.953837 -0.315165 -7.317107 3.377521 -0.062094 -0.163579 -0.021042
-1.728562 50.138491 34.352185 172.702879 -32.658632 -6.815888 6.188410 21.871264 7.556880 0.678313 3.213516 0.738041 1.132649 5.243274 1.241406 4.674139 18.513779 5.009716 -3.209990 18.013417 0.767521 -6.155771 -2.241094 2.461797 2.844259 -0.709626 -4.925785 5.802373 -15.377463 -9.348675 -123.834668 -49.321572 131.202136 -8.208206 -5.808925 41.999457 -11.614870 -0.567608 -1.310733 7.320147 -15.511137 0.102196 105.131542 -44.767961 -141.950020 36.680409 -1.847831 -26.464344 0.763312 -48.864262 10.245636 -75.214797 80.534350 -63.762025 -1.184617 -6.484538 -4.321890 -0.178282 1.017539 -0.051390 -14.281943 -51.991344 19.546119 -165.310873 88.173342 -171.866605 -0.293279 -7.327202 3.391933 -0.056509 -0.173824 -0.039869
-1.726582 50.144144 34.340498 172.700230 -32.656725 -6.815781 6.200045 21.906038 7.579166 0.690238 3.298878 0.775229 1.134874 5.252196 1.242632 4.693913 18.555952 5.041462 -3.162583 18.077382 0.763383 -6.064708 -2.124898 2.435551 2.851726 -0.680100 -4.912871 5.957569 -15.663011 -9.194536 -123.886222 -49.421854 130.912219 -8.618554 -6.057616 40.420061 -11.700806 -0.546182 -1.291254 7.167553 -15.666866 0.023075 105.724967 -45.149057 -141.870951 37.291418 -2.928349 -24.228179 0.766196 -48.860044 10.249014 -75.279972 80.524237 -63.821275 -1.181934 -6.489721 -4.322422 -0.173637 1.055288 -0.061742 -14.278388 -51.985944 19.527368 -165.106029 88.164229 -171.649885 -0.271096 -7.342960 3.391388 -0.054010 -0.173814 -0.048287
-1.723911 50.147847 34.332963 172.680185 -32.638302 -6.809710 6.230978 21.989695 7.633804 0.694655 3.297033 0.773788 1.142906 5.281562 1.255145 4.713609 18.595358 5.074338 -3.134226 18.132004 0.740968 -6.003061 -2.026134 2.382363 2.856802 -0.662210 -4.903355 6.115208 -15.931570 -9.041847 -124.037376 -49.621360 130.668933 -8.986102 -6.266082 38.825924 -11.784571 -0.527071 -1.266454 7.007749 -15.815457 -0.051661 106.337821 -45.575151 -141.785498 37.808518 -4.059863 -21.947397 0.777583 -48.879741 10.257299 -75.296646 80.521082 -63.834356 -1.184083 -6.476341 -4.321289 -0.183694 1.062993 -0.068200 -14.297476 -51.995681 19.525615 -165.382466 88.156908 -171.913085 -0.245841 -7.356139 3.379237 -0.051839 -0.173164 -0.060015
-1.720125 50.152970 34.323906 172.676677 -32.642139 -6.815726 6.251639 22.089137 7.696657 0.698933 3.295703 0.772960 1.151184 5.312420 1.268581 4.733798 18.636448 5.109679 -3.125502 18.176303 0.701168 -5.972364 -1.946586 2.304185 2.855253 -0.654376 -4.896856 6.279611 -16.184422 -8.892084 -124.330305 -49.950359 130.492236 -9.317475 -6.431032 37.227461 -11.872065 -0.509892 -1.237818 6.835842 -15.954950 -0.121722 106.979445 -46.062514 -141.702381 38.209803 -5.254476 -19.632687 0.793043 -48.873601 10.268039 -75.314012 80.513590 -63.836221 -1.222919 -6.474666 -4.323480 -0.186949 1.079073 -0.068357 -14.316420 -51.982986 19.512842 -165.542284 88.149503 -172.052619 -0.215449 -7.370017 3.357943 -0.059600 -0.169401 -0.057564
